{
    "asset" : {
        "generator" : "Khronos glTF Blender I/O v1.4.40",
        "version" : "2.0"
    },
    "scene" : 0,
    "scenes" : [
        {
            "name" : "Scene",
            "nodes" : [
                0,
                1,
                2,
                3,
                4
            ]
        }
    ],
    "nodes" : [
        {
            "name" : "Light",
            "rotation" : [
                0.16907575726509094,
                0.7558803558349609,
                -0.27217137813568115,
                0.570947527885437
            ],
            "translation" : [
                1.6123650074005127,
                2.4687552452087402,
                -1.4896339178085327
            ]
        },
        {
            "name" : "Camera",
            "rotation" : [
                0.5142748951911926,
                0.33021512627601624,
                -0.22366832196712494,
                0.7592442035675049
            ],
            "translation" : [
                4.150449275970459,
                3.2862765789031982,
                3.9401724338531494
            ]
        },
        {
            "mesh" : 0,
            "name" : "Cylinder",
            "rotation" : [
                0,
                -0.6946715712547302,
                0,
                0.7193271517753601
            ],
            "scale" : [
                1,
                2.1342904567718506,
                1
            ],
            "translation" : [
                0,
                2.2681329250335693,
                0
            ]
        },
        {
            "name" : "Point",
            "translation" : [
                -0.7892125844955444,
                1.8495652675628662,
                1.0894041061401367
            ]
        },
        {
            "name" : "Point.001",
            "translation" : [
                0.520470917224884,
                3.0395495891571045,
                0.895210325717926
            ]
        }
    ],
    "materials" : [
        {
            "doubleSided" : true,
            "name" : "Material.001",
            "pbrMetallicRoughness" : {
                "baseColorFactor" : [
                    0.03940827399492264,
                    0.004532995168119669,
                    0.0074829040095210075,
                    1
                ],
                "metallicFactor" : 0,
                "roughnessFactor" : 0.7385321259498596
            }
        }
    ],
    "meshes" : [
        {
            "name" : "Cylinder.001",
            "primitives" : [
                {
                    "attributes" : {
                        "POSITION" : 0,
                        "NORMAL" : 1,
                        "TEXCOORD_0" : 2
                    },
                    "indices" : 3,
                    "material" : 0
                }
            ]
        }
    ],
    "accessors" : [
        {
            "bufferView" : 0,
            "componentType" : 5126,
            "count" : 79872,
            "max" : [
                0.8968074917793274,
                -0.07084270566701889,
                0.8968112468719482
            ],
            "min" : [
                -0.8968150615692139,
                -1.0371739864349365,
                -0.8968113660812378
            ],
            "type" : "VEC3"
        },
        {
            "bufferView" : 1,
            "componentType" : 5126,
            "count" : 79872,
            "type" : "VEC3"
        },
        {
            "bufferView" : 2,
            "componentType" : 5126,
            "count" : 79872,
            "type" : "VEC2"
        },
        {
            "bufferView" : 3,
            "componentType" : 5125,
            "count" : 119808,
            "type" : "SCALAR"
        }
    ],
    "bufferViews" : [
        {
            "buffer" : 0,
            "byteLength" : 958464,
            "byteOffset" : 0
        },
        {
            "buffer" : 0,
            "byteLength" : 958464,
            "byteOffset" : 958464
        },
        {
            "buffer" : 0,
            "byteLength" : 638976,
            "byteOffset" : 1916928
        },
        {
            "buffer" : 0,
            "byteLength" : 479232,
            "byteOffset" : 2555904
        }
    ],
    "buffers" : [
        {
            "byteLength" : 3035136,
            "uri" : "data:application/octet-stream;base64,"
        }
    ]
}
