{
    "asset" : {
        "generator" : "Khronos glTF Blender I/O v1.4.40",
        "version" : "2.0"
    },
    "scene" : 0,
    "scenes" : [
        {
            "name" : "Scene",
            "nodes" : [
                0,
                1
            ]
        }
    ],
    "nodes" : [
        {
            "name" : "Camera",
            "rotation" : [
                0.5329551696777344,
                0.29639288783073425,
                -0.20642033219337463,
                0.7651801705360413
            ],
            "translation" : [
                7.002748489379883,
                5.391323566436768,
                7.532924175262451
            ]
        },
        {
            "mesh" : 0,
            "name" : "Cube.001",
            "rotation" : [
                0,
                0,
                0.9987711906433105,
                0.04956129938364029
            ],
            "scale" : [
                -0.5044373273849487,
                -0.5044373273849487,
                -0.5044373273849487
            ],
            "translation" : [
                -2.2295072078704834,
                -0.5054342746734619,
                0
            ]
        }
    ],
    "materials" : [
        {
            "doubleSided" : true,
            "emissiveFactor" : [
                0.21485340134010755,
                0.05902691288154749,
                1
            ],
            "name" : "Material.001",
            "pbrMetallicRoughness" : {
                "baseColorFactor" : [
                    0.0152310561388731,
                    0,
                    0.8000000715255737,
                    1
                ],
                "metallicFactor" : 0,
                "roughnessFactor" : 0.5
            }
        },
        {
            "doubleSided" : true,
            "name" : "Material.006",
            "pbrMetallicRoughness" : {
                "baseColorFactor" : [
                    0,
                    0,
                    0,
                    1
                ],
                "roughnessFactor" : 0.5
            }
        },
        {
            "doubleSided" : true,
            "emissiveFactor" : [
                1,
                0.9856863021850586,
                0
            ],
            "name" : "Material.004",
            "pbrMetallicRoughness" : {
                "baseColorFactor" : [
                    0.5376162528991699,
                    0.8000000715255737,
                    0,
                    1
                ],
                "metallicFactor" : 0,
                "roughnessFactor" : 0.5
            }
        },
        {
            "doubleSided" : true,
            "emissiveFactor" : [
                1,
                0.006821552291512489,
                0
            ],
            "name" : "Material.003",
            "pbrMetallicRoughness" : {
                "baseColorFactor" : [
                    0.8000000715255737,
                    0.0023319763131439686,
                    0,
                    1
                ],
                "metallicFactor" : 0,
                "roughnessFactor" : 0.5
            }
        },
        {
            "doubleSided" : true,
            "emissiveFactor" : [
                0.042250361293554306,
                1,
                0
            ],
            "name" : "Material.002",
            "pbrMetallicRoughness" : {
                "baseColorFactor" : [
                    0.0008880030363798141,
                    0.8000000715255737,
                    0,
                    1
                ],
                "metallicFactor" : 0,
                "roughnessFactor" : 0.5
            }
        }
    ],
    "meshes" : [
        {
            "name" : "Cube.002",
            "primitives" : [
                {
                    "attributes" : {
                        "POSITION" : 0,
                        "NORMAL" : 1,
                        "TEXCOORD_0" : 2
                    },
                    "indices" : 3,
                    "material" : 0
                },
                {
                    "attributes" : {
                        "POSITION" : 4,
                        "NORMAL" : 5,
                        "TEXCOORD_0" : 6
                    },
                    "indices" : 7,
                    "material" : 1
                },
                {
                    "attributes" : {
                        "POSITION" : 8,
                        "NORMAL" : 9,
                        "TEXCOORD_0" : 10
                    },
                    "indices" : 11,
                    "material" : 2
                },
                {
                    "attributes" : {
                        "POSITION" : 12,
                        "NORMAL" : 13,
                        "TEXCOORD_0" : 14
                    },
                    "indices" : 15,
                    "material" : 3
                },
                {
                    "attributes" : {
                        "POSITION" : 16,
                        "NORMAL" : 17,
                        "TEXCOORD_0" : 18
                    },
                    "indices" : 19,
                    "material" : 4
                }
            ]
        }
    ],
    "accessors" : [
        {
            "bufferView" : 0,
            "componentType" : 5126,
            "count" : 96,
            "max" : [
                0.8395062685012817,
                0.8395062685012817,
                0.8395062685012817
            ],
            "min" : [
                -0.8395062685012817,
                -0.8395062685012817,
                -0.8395062685012817
            ],
            "type" : "VEC3"
        },
        {
            "bufferView" : 1,
            "componentType" : 5126,
            "count" : 96,
            "type" : "VEC3"
        },
        {
            "bufferView" : 2,
            "componentType" : 5126,
            "count" : 96,
            "type" : "VEC2"
        },
        {
            "bufferView" : 3,
            "componentType" : 5123,
            "count" : 144,
            "type" : "SCALAR"
        },
        {
            "bufferView" : 4,
            "componentType" : 5126,
            "count" : 608,
            "max" : [
                10.378143310546875,
                1.3787786960601807,
                0.507836639881134
            ],
            "min" : [
                -0.2567421793937683,
                -4.300561428070068,
                -0.5390595197677612
            ],
            "type" : "VEC3"
        },
        {
            "bufferView" : 5,
            "componentType" : 5126,
            "count" : 608,
            "type" : "VEC3"
        },
        {
            "bufferView" : 6,
            "componentType" : 5126,
            "count" : 608,
            "type" : "VEC2"
        },
        {
            "bufferView" : 7,
            "componentType" : 5123,
            "count" : 912,
            "type" : "SCALAR"
        },
        {
            "bufferView" : 8,
            "componentType" : 5126,
            "count" : 96,
            "max" : [
                10.144617080688477,
                1.6513617038726807,
                0.8395063877105713
            ],
            "min" : [
                8.465605735778809,
                -0.027650853618979454,
                -0.8395061492919922
            ],
            "type" : "VEC3"
        },
        {
            "bufferView" : 9,
            "componentType" : 5126,
            "count" : 96,
            "type" : "VEC3"
        },
        {
            "bufferView" : 10,
            "componentType" : 5126,
            "count" : 96,
            "type" : "VEC2"
        },
        {
            "bufferView" : 11,
            "componentType" : 5123,
            "count" : 144,
            "type" : "SCALAR"
        },
        {
            "bufferView" : 12,
            "componentType" : 5126,
            "count" : 96,
            "max" : [
                10.519320487976074,
                -1.7990232706069946,
                0.8395059108734131
            ],
            "min" : [
                8.840309143066406,
                -3.4780359268188477,
                -0.8395066261291504
            ],
            "type" : "VEC3"
        },
        {
            "bufferView" : 13,
            "componentType" : 5126,
            "count" : 96,
            "type" : "VEC3"
        },
        {
            "bufferView" : 14,
            "componentType" : 5126,
            "count" : 96,
            "type" : "VEC2"
        },
        {
            "bufferView" : 15,
            "componentType" : 5123,
            "count" : 144,
            "type" : "SCALAR"
        },
        {
            "bufferView" : 16,
            "componentType" : 5126,
            "count" : 96,
            "max" : [
                1.9948391914367676,
                -3.157320022583008,
                0.8395057916641235
            ],
            "min" : [
                0.3158268928527832,
                -4.836332321166992,
                -0.8395067453384399
            ],
            "type" : "VEC3"
        },
        {
            "bufferView" : 17,
            "componentType" : 5126,
            "count" : 96,
            "type" : "VEC3"
        },
        {
            "bufferView" : 18,
            "componentType" : 5126,
            "count" : 96,
            "type" : "VEC2"
        },
        {
            "bufferView" : 19,
            "componentType" : 5123,
            "count" : 144,
            "type" : "SCALAR"
        }
    ],
    "bufferViews" : [
        {
            "buffer" : 0,
            "byteLength" : 1152,
            "byteOffset" : 0
        },
        {
            "buffer" : 0,
            "byteLength" : 1152,
            "byteOffset" : 1152
        },
        {
            "buffer" : 0,
            "byteLength" : 768,
            "byteOffset" : 2304
        },
        {
            "buffer" : 0,
            "byteLength" : 288,
            "byteOffset" : 3072
        },
        {
            "buffer" : 0,
            "byteLength" : 7296,
            "byteOffset" : 3360
        },
        {
            "buffer" : 0,
            "byteLength" : 7296,
            "byteOffset" : 10656
        },
        {
            "buffer" : 0,
            "byteLength" : 4864,
            "byteOffset" : 17952
        },
        {
            "buffer" : 0,
            "byteLength" : 1824,
            "byteOffset" : 22816
        },
        {
            "buffer" : 0,
            "byteLength" : 1152,
            "byteOffset" : 24640
        },
        {
            "buffer" : 0,
            "byteLength" : 1152,
            "byteOffset" : 25792
        },
        {
            "buffer" : 0,
            "byteLength" : 768,
            "byteOffset" : 26944
        },
        {
            "buffer" : 0,
            "byteLength" : 288,
            "byteOffset" : 27712
        },
        {
            "buffer" : 0,
            "byteLength" : 1152,
            "byteOffset" : 28000
        },
        {
            "buffer" : 0,
            "byteLength" : 1152,
            "byteOffset" : 29152
        },
        {
            "buffer" : 0,
            "byteLength" : 768,
            "byteOffset" : 30304
        },
        {
            "buffer" : 0,
            "byteLength" : 288,
            "byteOffset" : 31072
        },
        {
            "buffer" : 0,
            "byteLength" : 1152,
            "byteOffset" : 31360
        },
        {
            "buffer" : 0,
            "byteLength" : 1152,
            "byteOffset" : 32512
        },
        {
            "buffer" : 0,
            "byteLength" : 768,
            "byteOffset" : 33664
        },
        {
            "buffer" : 0,
            "byteLength" : 288,
            "byteOffset" : 34432
        }
    ],
    "buffers" : [
        {
            "byteLength" : 34720,
            "uri" : "data:application/octet-stream;base64,"
        }
    ]
}
