{
    "asset" : {
        "generator" : "Khronos glTF Blender I/O v1.4.40",
        "version" : "2.0"
    },
    "scene" : 0,
    "scenes" : [
        {
            "name" : "Scene",
            "nodes" : [
                0,
                1,
                2,
                3,
                4,
                5,
                6,
                7,
                8,
                9,
                10,
                11
            ]
        }
    ],
    "nodes" : [
        {
            "name" : "Light",
            "rotation" : [
                0.16907575726509094,
                0.7558803558349609,
                -0.27217137813568115,
                0.570947527885437
            ],
            "translation" : [
                4.076245307922363,
                5.903861999511719,
                -1.0054539442062378
            ]
        },
        {
            "name" : "Camera",
            "rotation" : [
                0.6717029213905334,
                0.26561635732650757,
                -0.2826630771160126,
                0.6311613917350769
            ],
            "translation" : [
                17.944538116455078,
                1.2249733209609985,
                17.400169372558594
            ]
        },
        {
            "mesh" : 0,
            "name" : "Plane",
            "scale" : [
                20,
                20,
                20
            ]
        },
        {
            "mesh" : 1,
            "name" : "Plane.001",
            "rotation" : [
                0,
                0,
                0.7071067094802856,
                0.7071068286895752
            ],
            "scale" : [
                20,
                20,
                20
            ],
            "translation" : [
                20,
                20,
                0
            ]
        },
        {
            "mesh" : 2,
            "name" : "Plane.002",
            "rotation" : [
                0.7071068286895752,
                0,
                0,
                0.7071068286895752
            ],
            "scale" : [
                20,
                20,
                20
            ],
            "translation" : [
                0,
                20,
                -20
            ]
        },
        {
            "mesh" : 3,
            "name" : "Plane.003",
            "rotation" : [
                -0.7071068286895752,
                0,
                0,
                0.7071068286895752
            ],
            "scale" : [
                20,
                20,
                20
            ],
            "translation" : [
                0,
                20,
                20
            ]
        },
        {
            "mesh" : 4,
            "name" : "Plane.004",
            "rotation" : [
                0,
                0,
                -0.7071067094802856,
                0.7071068286895752
            ],
            "scale" : [
                20,
                20,
                20
            ],
            "translation" : [
                -20,
                20,
                0
            ]
        },
        {
            "mesh" : 5,
            "name" : "Plane.005",
            "scale" : [
                20,
                20,
                20
            ],
            "translation" : [
                0,
                40,
                0
            ]
        },
        {
            "mesh" : 6,
            "name" : "Cylinder",
            "scale" : [
                1.2094879150390625,
                24.18975830078125,
                1.2094879150390625
            ],
            "translation" : [
                -20,
                20,
                20
            ]
        },
        {
            "mesh" : 7,
            "name" : "Cylinder.001",
            "scale" : [
                1.2094879150390625,
                24.18975830078125,
                1.2094879150390625
            ],
            "translation" : [
                20,
                20,
                20
            ]
        },
        {
            "mesh" : 8,
            "name" : "Cylinder.002",
            "scale" : [
                1.2094879150390625,
                24.18975830078125,
                1.2094879150390625
            ],
            "translation" : [
                20,
                20,
                -20
            ]
        },
        {
            "mesh" : 9,
            "name" : "Cylinder.003",
            "scale" : [
                1.2094879150390625,
                24.18975830078125,
                1.2094879150390625
            ],
            "translation" : [
                -20,
                20,
                -20
            ]
        }
    ],
    "materials" : [
        {
            "doubleSided" : true,
            "name" : "Material.001",
            "pbrMetallicRoughness" : {
                "baseColorTexture" : {
                    "index" : 0,
                    "texCoord" : 0
                },
                "metallicFactor" : 0.27559053897857666,
                "roughnessFactor" : 0.11417323350906372
            }
        },
        {
            "doubleSided" : true,
            "name" : "Material.002",
            "pbrMetallicRoughness" : {
                "baseColorTexture" : {
                    "index" : 1,
                    "texCoord" : 0
                },
                "metallicFactor" : 0,
                "roughnessFactor" : 0.4488189220428467
            }
        },
        {
            "doubleSided" : true,
            "name" : "Material.003",
            "pbrMetallicRoughness" : {
                "baseColorTexture" : {
                    "index" : 2,
                    "texCoord" : 0
                },
                "metallicFactor" : 0,
                "roughnessFactor" : 0.5
            }
        },
        {
            "doubleSided" : true,
            "name" : "Material.004",
            "pbrMetallicRoughness" : {
                "baseColorTexture" : {
                    "index" : 3,
                    "texCoord" : 0
                },
                "metallicFactor" : 0,
                "roughnessFactor" : 0.5
            }
        }
    ],
    "meshes" : [
        {
            "name" : "Plane.001",
            "primitives" : [
                {
                    "attributes" : {
                        "POSITION" : 0,
                        "NORMAL" : 1,
                        "TEXCOORD_0" : 2
                    },
                    "indices" : 3,
                    "material" : 0
                }
            ]
        },
        {
            "name" : "Plane.002",
            "primitives" : [
                {
                    "attributes" : {
                        "POSITION" : 4,
                        "NORMAL" : 5,
                        "TEXCOORD_0" : 6
                    },
                    "indices" : 7,
                    "material" : 1
                }
            ]
        },
        {
            "name" : "Plane.003",
            "primitives" : [
                {
                    "attributes" : {
                        "POSITION" : 8,
                        "NORMAL" : 9,
                        "TEXCOORD_0" : 10
                    },
                    "indices" : 3,
                    "material" : 1
                }
            ]
        },
        {
            "name" : "Plane.004",
            "primitives" : [
                {
                    "attributes" : {
                        "POSITION" : 11,
                        "NORMAL" : 12,
                        "TEXCOORD_0" : 13
                    },
                    "indices" : 3,
                    "material" : 1
                }
            ]
        },
        {
            "name" : "Plane.005",
            "primitives" : [
                {
                    "attributes" : {
                        "POSITION" : 14,
                        "NORMAL" : 15,
                        "TEXCOORD_0" : 16
                    },
                    "indices" : 3,
                    "material" : 1
                }
            ]
        },
        {
            "name" : "Plane.006",
            "primitives" : [
                {
                    "attributes" : {
                        "POSITION" : 17,
                        "NORMAL" : 18,
                        "TEXCOORD_0" : 19
                    },
                    "indices" : 3,
                    "material" : 2
                }
            ]
        },
        {
            "name" : "Cylinder",
            "primitives" : [
                {
                    "attributes" : {
                        "POSITION" : 20,
                        "NORMAL" : 21,
                        "TEXCOORD_0" : 22
                    },
                    "indices" : 23,
                    "material" : 3
                }
            ]
        },
        {
            "name" : "Cylinder.001",
            "primitives" : [
                {
                    "attributes" : {
                        "POSITION" : 24,
                        "NORMAL" : 25,
                        "TEXCOORD_0" : 26
                    },
                    "indices" : 23,
                    "material" : 3
                }
            ]
        },
        {
            "name" : "Cylinder.002",
            "primitives" : [
                {
                    "attributes" : {
                        "POSITION" : 27,
                        "NORMAL" : 28,
                        "TEXCOORD_0" : 29
                    },
                    "indices" : 23,
                    "material" : 3
                }
            ]
        },
        {
            "name" : "Cylinder.003",
            "primitives" : [
                {
                    "attributes" : {
                        "POSITION" : 30,
                        "NORMAL" : 31,
                        "TEXCOORD_0" : 32
                    },
                    "indices" : 23,
                    "material" : 3
                }
            ]
        }
    ],
    "textures" : [
        {
            "sampler" : 0,
            "source" : 0
        },
        {
            "sampler" : 1,
            "source" : 1
        },
        {
            "sampler" : 1,
            "source" : 2
        },
        {
            "sampler" : 1,
            "source" : 3
        }
    ],
    "images" : [
        {
            "bufferView" : 4,
            "mimeType" : "image/jpeg",
            "name" : "Marble Floor"
        },
        {
            "bufferView" : 9,
            "mimeType" : "image/jpeg",
            "name" : "White Paint Walls"
        },
        {
            "bufferView" : 22,
            "mimeType" : "image/jpeg",
            "name" : "Concrete"
        },
        {
            "bufferView" : 27,
            "mimeType" : "image/jpeg",
            "name" : "Pillar Marbel"
        }
    ],
    "accessors" : [
        {
            "bufferView" : 0,
            "componentType" : 5126,
            "count" : 4,
            "max" : [
                1,
                0,
                1
            ],
            "min" : [
                -1,
                0,
                -1
            ],
            "type" : "VEC3"
        },
        {
            "bufferView" : 1,
            "componentType" : 5126,
            "count" : 4,
            "type" : "VEC3"
        },
        {
            "bufferView" : 2,
            "componentType" : 5126,
            "count" : 4,
            "type" : "VEC2"
        },
        {
            "bufferView" : 3,
            "componentType" : 5123,
            "count" : 6,
            "type" : "SCALAR"
        },
        {
            "bufferView" : 5,
            "componentType" : 5126,
            "count" : 24,
            "max" : [
                1,
                0,
                1
            ],
            "min" : [
                -1,
                0,
                -1
            ],
            "type" : "VEC3"
        },
        {
            "bufferView" : 6,
            "componentType" : 5126,
            "count" : 24,
            "type" : "VEC3"
        },
        {
            "bufferView" : 7,
            "componentType" : 5126,
            "count" : 24,
            "type" : "VEC2"
        },
        {
            "bufferView" : 8,
            "componentType" : 5123,
            "count" : 48,
            "type" : "SCALAR"
        },
        {
            "bufferView" : 10,
            "componentType" : 5126,
            "count" : 4,
            "max" : [
                1,
                0,
                1
            ],
            "min" : [
                -1,
                0,
                -1
            ],
            "type" : "VEC3"
        },
        {
            "bufferView" : 11,
            "componentType" : 5126,
            "count" : 4,
            "type" : "VEC3"
        },
        {
            "bufferView" : 12,
            "componentType" : 5126,
            "count" : 4,
            "type" : "VEC2"
        },
        {
            "bufferView" : 13,
            "componentType" : 5126,
            "count" : 4,
            "max" : [
                1,
                0,
                1
            ],
            "min" : [
                -1,
                0,
                -1
            ],
            "type" : "VEC3"
        },
        {
            "bufferView" : 14,
            "componentType" : 5126,
            "count" : 4,
            "type" : "VEC3"
        },
        {
            "bufferView" : 15,
            "componentType" : 5126,
            "count" : 4,
            "type" : "VEC2"
        },
        {
            "bufferView" : 16,
            "componentType" : 5126,
            "count" : 4,
            "max" : [
                1,
                0,
                1
            ],
            "min" : [
                -1,
                0,
                -1
            ],
            "type" : "VEC3"
        },
        {
            "bufferView" : 17,
            "componentType" : 5126,
            "count" : 4,
            "type" : "VEC3"
        },
        {
            "bufferView" : 18,
            "componentType" : 5126,
            "count" : 4,
            "type" : "VEC2"
        },
        {
            "bufferView" : 19,
            "componentType" : 5126,
            "count" : 4,
            "max" : [
                1,
                0,
                1
            ],
            "min" : [
                -1,
                0,
                -1
            ],
            "type" : "VEC3"
        },
        {
            "bufferView" : 20,
            "componentType" : 5126,
            "count" : 4,
            "type" : "VEC3"
        },
        {
            "bufferView" : 21,
            "componentType" : 5126,
            "count" : 4,
            "type" : "VEC2"
        },
        {
            "bufferView" : 23,
            "componentType" : 5126,
            "count" : 1600,
            "max" : [
                4.765599727630615,
                1,
                4.765606880187988
            ],
            "min" : [
                -4.765614032745361,
                -1,
                -4.765606880187988
            ],
            "type" : "VEC3"
        },
        {
            "bufferView" : 24,
            "componentType" : 5126,
            "count" : 1600,
            "type" : "VEC3"
        },
        {
            "bufferView" : 25,
            "componentType" : 5126,
            "count" : 1600,
            "type" : "VEC2"
        },
        {
            "bufferView" : 26,
            "componentType" : 5123,
            "count" : 2484,
            "type" : "SCALAR"
        },
        {
            "bufferView" : 28,
            "componentType" : 5126,
            "count" : 1600,
            "max" : [
                4.765599727630615,
                1,
                4.765606880187988
            ],
            "min" : [
                -4.765614032745361,
                -1,
                -4.765606880187988
            ],
            "type" : "VEC3"
        },
        {
            "bufferView" : 29,
            "componentType" : 5126,
            "count" : 1600,
            "type" : "VEC3"
        },
        {
            "bufferView" : 30,
            "componentType" : 5126,
            "count" : 1600,
            "type" : "VEC2"
        },
        {
            "bufferView" : 31,
            "componentType" : 5126,
            "count" : 1600,
            "max" : [
                4.765599727630615,
                1,
                4.765606880187988
            ],
            "min" : [
                -4.765614032745361,
                -1,
                -4.765606880187988
            ],
            "type" : "VEC3"
        },
        {
            "bufferView" : 32,
            "componentType" : 5126,
            "count" : 1600,
            "type" : "VEC3"
        },
        {
            "bufferView" : 33,
            "componentType" : 5126,
            "count" : 1600,
            "type" : "VEC2"
        },
        {
            "bufferView" : 34,
            "componentType" : 5126,
            "count" : 1600,
            "max" : [
                4.765599727630615,
                1,
                4.765606880187988
            ],
            "min" : [
                -4.765614032745361,
                -1,
                -4.765606880187988
            ],
            "type" : "VEC3"
        },
        {
            "bufferView" : 35,
            "componentType" : 5126,
            "count" : 1600,
            "type" : "VEC3"
        },
        {
            "bufferView" : 36,
            "componentType" : 5126,
            "count" : 1600,
            "type" : "VEC2"
        }
    ],
    "bufferViews" : [
        {
            "buffer" : 0,
            "byteLength" : 48,
            "byteOffset" : 0
        },
        {
            "buffer" : 0,
            "byteLength" : 48,
            "byteOffset" : 48
        },
        {
            "buffer" : 0,
            "byteLength" : 32,
            "byteOffset" : 96
        },
        {
            "buffer" : 0,
            "byteLength" : 12,
            "byteOffset" : 128
        },
        {
            "buffer" : 0,
            "byteLength" : 94400,
            "byteOffset" : 140
        },
        {
            "buffer" : 0,
            "byteLength" : 288,
            "byteOffset" : 94540
        },
        {
            "buffer" : 0,
            "byteLength" : 288,
            "byteOffset" : 94828
        },
        {
            "buffer" : 0,
            "byteLength" : 192,
            "byteOffset" : 95116
        },
        {
            "buffer" : 0,
            "byteLength" : 96,
            "byteOffset" : 95308
        },
        {
            "buffer" : 0,
            "byteLength" : 67242,
            "byteOffset" : 95404
        },
        {
            "buffer" : 0,
            "byteLength" : 48,
            "byteOffset" : 162648
        },
        {
            "buffer" : 0,
            "byteLength" : 48,
            "byteOffset" : 162696
        },
        {
            "buffer" : 0,
            "byteLength" : 32,
            "byteOffset" : 162744
        },
        {
            "buffer" : 0,
            "byteLength" : 48,
            "byteOffset" : 162776
        },
        {
            "buffer" : 0,
            "byteLength" : 48,
            "byteOffset" : 162824
        },
        {
            "buffer" : 0,
            "byteLength" : 32,
            "byteOffset" : 162872
        },
        {
            "buffer" : 0,
            "byteLength" : 48,
            "byteOffset" : 162904
        },
        {
            "buffer" : 0,
            "byteLength" : 48,
            "byteOffset" : 162952
        },
        {
            "buffer" : 0,
            "byteLength" : 32,
            "byteOffset" : 163000
        },
        {
            "buffer" : 0,
            "byteLength" : 48,
            "byteOffset" : 163032
        },
        {
            "buffer" : 0,
            "byteLength" : 48,
            "byteOffset" : 163080
        },
        {
            "buffer" : 0,
            "byteLength" : 32,
            "byteOffset" : 163128
        },
        {
            "buffer" : 0,
            "byteLength" : 69836,
            "byteOffset" : 163160
        },
        {
            "buffer" : 0,
            "byteLength" : 19200,
            "byteOffset" : 232996
        },
        {
            "buffer" : 0,
            "byteLength" : 19200,
            "byteOffset" : 252196
        },
        {
            "buffer" : 0,
            "byteLength" : 12800,
            "byteOffset" : 271396
        },
        {
            "buffer" : 0,
            "byteLength" : 4968,
            "byteOffset" : 284196
        },
        {
            "buffer" : 0,
            "byteLength" : 139286,
            "byteOffset" : 289164
        },
        {
            "buffer" : 0,
            "byteLength" : 19200,
            "byteOffset" : 428452
        },
        {
            "buffer" : 0,
            "byteLength" : 19200,
            "byteOffset" : 447652
        },
        {
            "buffer" : 0,
            "byteLength" : 12800,
            "byteOffset" : 466852
        },
        {
            "buffer" : 0,
            "byteLength" : 19200,
            "byteOffset" : 479652
        },
        {
            "buffer" : 0,
            "byteLength" : 19200,
            "byteOffset" : 498852
        },
        {
            "buffer" : 0,
            "byteLength" : 12800,
            "byteOffset" : 518052
        },
        {
            "buffer" : 0,
            "byteLength" : 19200,
            "byteOffset" : 530852
        },
        {
            "buffer" : 0,
            "byteLength" : 19200,
            "byteOffset" : 550052
        },
        {
            "buffer" : 0,
            "byteLength" : 12800,
            "byteOffset" : 569252
        }
    ],
    "samplers" : [
        {
            "magFilter" : 9729,
            "minFilter" : 9986,
            "wrapS" : 33071,
            "wrapT" : 33071
        },
        {
            "magFilter" : 9729,
            "minFilter" : 9986
        }
    ],
    "buffers" : [
        {
            "byteLength" : 582052,
            "uri" : "data:application/octet-stream;base64,"
        }
    ]
}
